<?xml version="1.0" encoding="UTF-8" standalone="no"?>
<svg
   version="1.1"
   viewBox="0 0 1024 1024"
   width="1024"
   height="1024"
   id="svg409"
   sodipodi:docname="an-logo.svg"
   inkscape:version="1.2.2 (b0a8486541, 2022-12-01)"
   xmlns:inkscape="http://www.inkscape.org/namespaces/inkscape"
   xmlns:sodipodi="http://sodipodi.sourceforge.net/DTD/sodipodi-0.dtd"
   xmlns="http://www.w3.org/2000/svg"
   xmlns:svg="http://www.w3.org/2000/svg">
  <defs
     id="defs413" />
  <sodipodi:namedview
     id="namedview411"
     pagecolor="#505050"
     bordercolor="#ffffff"
     borderopacity="1"
     inkscape:showpageshadow="0"
     inkscape:pageopacity="0"
     inkscape:pagecheckerboard="1"
     inkscape:deskcolor="#505050"
     showgrid="false"
     inkscape:zoom="1.0029297"
     inkscape:cx="342.99513"
     inkscape:cy="511.50146"
     inkscape:window-width="3840"
     inkscape:window-height="2135"
     inkscape:window-x="3840"
     inkscape:window-y="0"
     inkscape:window-maximized="1"
     inkscape:current-layer="svg409" />
  <path
     transform="translate(533,73)"
     d="m0 0h33l20 4 15 6 15 9 12 11 9 12 6 11 12 3 11 6 10 9 7 8 8 13 6 16 4 17 2 21v13l-1 22 8 7 6 10 3 9 1 7v18l-4 18-5 12-6 9-9 10-10 7-13 5-5 1h-10l-3 9-1 2 12 3 16 7 12 8 12 11 9 12 9 17 5 15 6 31 3 28 7 76v9l-2 9-3 7 14 34 16 42 11 28 8 16 5 8 10 9 11 9 10 9 11 9 9 9 4 9 11 7 6 5 5 7 3 9v9l-3 15-7 25-8 20-7 14-8 9-10 5-13 3-14 1h-12l-22-2-11-4-6-4-1-7 4-10 8-11 7-7 7-5v-9l-1-6-20-8-25-13-26-16-16-12-12-11-9-9-22-28-20-26-6-8-18-5-11 5-17 9-28 17-22 14-16 11-3 2-2 13-8 69-3 6-3 1v37l-3 5-12 6-20 5-27 4-24 2h-39l-24-3-9-3-1-1v-13l4-8 9-10 9-8 13-8 18-8-4-3v-9l4-26-23 13-28 15-8 3h-7l-8-4-16-13-14-11-13-11-11-9-13-12-8-7-15-14-19-19-7-8-10-11-11-14-12-16-4-10-6-34-8-59-7-61-4-45-2-35-1-30 3-5 16-8 52-19 62-23 30-11 37-13 4-1h8l47 18h2l-3-17v-23l1-10-7-10-5-11-4-16v-22l-5-2-4-5-1-9 3-7 8-4 18-5-3-11-1-7v-12l2-14 5-15 6-11 3-5-7-7-7-12-3-9-1-6v-13l4-16 6-10 5-6 5-2 3 9 6 7 9 4 4 1h15l22-5 34-12 20-5z"
     fill="#3D261B"
     id="path339" />
  <path
     transform="translate(336,370)"
     d="m0 0 10 3 60 23 5 3-3 1-13-5-11-5 1 5-4 2-2-2v2 1 2l-3 1-2-1-2 4h-4l2 1-1 5 2-1 2-2v2h2v2h-2v2h-2l-1 2-1-2-4-1-2-2-3 3v2l3 2-4 1 1 4-1 2 2 2v2l-2 1-2 5-5 2-3-1 3 4 1 5-4 2 1 2 2 1-3 1h-2l3 7v5h-2l14 33 17 41 50 120 18 43 9 21v2l-13-1-39-4-6-12-14-33-2-7-18-1-24-2h-13l-2 1v2l2 2-2 1 2 4-2 1 1 5-1 7 1 2h-2l2 7v1l-2 1 1 14v19l-1 7v36l-2 3h2v5l-5 3 3 3-2 1 2 2 2 1v3l-6 1-3-2 3-1 1-3-4-1-3-3 1 5-6 2-1 4 2-3 2 1 1-2 2 5h2v2l-4-2-1 1-2 4h-2l-1 5-2 1-1 2 2 2-1 2h-4l-1 3-2-2-3 3v2l7 3-1 3 5 1h3l-2 3h2l1 3-5-2-14-12-16-13-11-10-8-7-24-22-8-8v-2l-4-2-8-8-7-8-13-14-11-14-4-5-3-6-4-18-8-50-5-39-6-59-3-39-2-33v-19l16-8 43-16 29-11 46-17 17-6 25-9z"
     fill="#E73773"
     id="path341" />
  <path
     transform="translate(384,390)"
     d="m0 0 9 3 8 3 7 3 8 1 11 5 13 5 15 6 24 10 31 13 31 14 2 2-1 17-3 25-1 13-1 5-4 27-1 9-1 5-2 11-2 13-5 27-3 13-1 7-1 3-4 18-3 14-2 7-6 23-4 16-5 16-8 8h-2l-1 3-6 4-2 3h-2v2h-3l-2 4-4 1-1 3h-2v2l-13 10-5 2v2l-5 4-5 3-4 3h-2v2h-2v2l-6 4h-3v2h-3v2l-18 12h-3v2l-18 11-12 7-10 6h-3v2l-25 13-4-1-3-2v-2l-5-2-4-5v-2h-2v-3h-4l-2-1v-3l-2 1-1-2-4-2v-4l5-2 1 2 1-2h4l-2-5 1-5 1 3 2-1 1-4 2-2 2-4 2 1 3 2v-2h-2l-3-3-2 1-1 2-2-1 1-6 1 2 4-3 2 1-1-5 3 1 1 2 3 1-1 5 4-1 2 1-2-3-2-1 1-5-3-1 5-3 1-5h-2l1-9v-35l1-7v-31-1-15-4l3-1-3-5 1-5 2-1h13l35 3 7 1 15 35 7 16 47 5 5 1-11-25-12-29-15-36-18-43-15-36-17-41-15-36-6-14 1-3 1 1-1-6-3-6 5 1-3-4 4-2-1-5-1-3 3-1v2l5-3 1-6 2-1-2-2v-2h2l-2-6 1-1 2-4 2-2 4 3 3 1h3v-2h2v-2h-3l-1 3v-2h-2l-1-6 5-2 1-2h5l-3-3 3-3 2 1 1 1 2-3z"
     fill="#AA3047"
     id="path343" />
  <path
     transform="translate(331,425)"
     d="m0 0 3 3 12 29 16 38 17 41 50 120 18 43 9 21v2l-13-1-39-4-6-12-14-33-2-7-18-1-60-5-26-2h-9l-16 35-6 13-20-1-27-3 2-6 36-76 16-34 10-22 8-16 13-28 19-40 16-33 10-20z"
     fill="#FCF5E7"
     id="path347" />
  <path
     transform="translate(646,390)"
     d="m0 0 7 1 10 3 16 8 11 8 8 8 4 6v2h2l8 16 4 11 2 7 3 19 2 14 3 30 5 56 1 14-6 12-4 5h-2l-2 4-15 11-13 7-10 4-28 10-25 5-8 1h-42l-5-1-18-3-5-2 3-6 11-12 7-7 11-7h2v-2l14-9 13-10 5-4h2l4 4 7 2h6l10-6 10-9 4-2 2-4 7-6 1-2h2l1-3 4-4 8-10 10-17 5-13 2-9v-5l-1-1-7 11-12 16-11 13-11 12-12 12h-2v2l-6 4-8-18-10-15-12-14-12-12-19-14-13-8-6-3v-2h-2l2-4h2l1-3 5-5 4-2v-2h2l2-4 10-12h2l2-4 9-11 7-6 7-8 12-11 8-7 7-8h2l2-5z"
     fill="#A83046"
     id="path349" />
  <path
     transform="translate(685,262)"
     d="m0 0 9 2 7 6 5 10 1 5v21l-4 16-6 12-10 11-10 6-9 3h-15l-5-1-1 9-6 14-8 12-11 12-10 9-14 9-16 8-21 7-10 2h-13l-72-30-40-16-19-8-3-5-4-18v-27l12 3 8 1h10l18-3 5 10 7 6 11 4h9l9-3 2-2v-7l-8 1h-11l-8-4-3-4-1-7 4-8 7-8 4-16 2-22 4-1h14l7 3 3 24 5 14 7 10 9 7 12 5 10 2h27l12-3 10-5 10-9 6-10 4-15 3-26 1-1h25v21l1 1h8l3-3 3-9 8-9 10-5z"
     fill="#FAD19E"
     id="path351" />
  <path
     transform="translate(560,880)"
     d="m0 0h65l67 2 40 2 28 3-7 12-1 4v7l1 3 17 6 22 2h12l20-2 12-4 8-6 2-3 3-1 4-6 9 1 17 6 7 6-1 7-6 5-14 5-19 5-36 6-38 4-55 4-42 2-36 1h-111l-51-2-58-4-50-5-28-4-29-6-15-5-8-5-2-3 1-6 5-4 10-4 19-5 12-2v3l-4 10v11l8 4 5 1h11l11 1h39l32-3 24-4 18-5 9-5 2-4h2v-23l21-1z"
     fill="#F6E2C4"
     id="path353" />
  <path
     transform="translate(572,148)"
     d="m0 0h20l12 4 10 7 1 20 2 14 5 15 7 11 7 8 8 6 2 6v9l-3 1h-18l-2-10-4-3-11-3-26-3h-24l-19 2-16 4-9 4-6 5-5 9h-24l-5 1-6-11-8-6-9-3-20-3h-31l1-11 4-19 8-19 7-11 4-1 18 6 10 2h26l20-4 19-7 26-12 18-6z"
     fill="#FAD1A0"
     id="path355" />
  <path
     transform="translate(544,246)"
     d="m0 0h41l8 3 6 5 3 7 1 6v13l-3 18-5 12-9 8-11 4-5 1h-20l-13-4-8-6-6-9-4-10-2-10v-11l2-10 4-8 5-4 10-4z"
     fill="#FCF5E6"
     id="path357" />
  <path
     transform="translate(552,504)"
     d="m0 0 5 1 16 10 14 11 16 16 10 13 5 8-2 5-12 12-13 10-16 10-14 7-20 6-6 1 1-9 8-42 6-42z"
     fill="#FAD19F"
     id="path359" />
  <path
     transform="translate(406,247)"
     d="m0 0h25l14 2 8 4 4 6 3 7v20l-3 14-5 10-8 7-12 4h-18l-10-4-8-7-6-12-2-7-1-8v-12l2-10 5-8 5-4z"
     fill="#FCF5E6"
     id="path361" />
  <path
     transform="translate(327,529)"
     d="m0 0 3 3 11 28 23 58v2h-15l-54-4-6-1 3-9 18-39 16-35z"
     fill="#E43770"
     id="path363" />
  <path
     transform="translate(331,538)"
     d="m0 0 3 4 22 56 8 20v2h-15l-52-4v-1h29l1-6-1-4v-10-4l1-3-1-3 1-5v-16l1-6h3l-3-1v-13l1-4h2z"
     fill="#B4314F"
     id="path365" />
  <path
     transform="translate(560,257)"
     d="m0 0 8 1 6 5 4 10v17l-4 10-5 5-3 2h-8l-6-4-4-6-2-7v-14l4-11 5-6z"
     fill="#3D261B"
     id="path367" />
  <path
     transform="translate(436,258)"
     d="m0 0 5 1 5 4 3 7 1 5-1 15-3 9-6 7-2 1h-6l-5-4-3-6-1-4v-16l3-10 5-7z"
     fill="#3D261B"
     id="path369" />
  <path
     transform="translate(252,229)"
     d="m0 0 10 1 17 4 17 5 13 3 5 4v8l-2 2h-12l-26-7-25-7-3-4v-5l2-3z"
     fill="#FAD09E"
     id="path371" />
  <path
     transform="translate(561,196)"
     d="m0 0h17l9 4 4 4v7l-4 3-9-1h-13l-13 4-13 6-6-1-3-3 1-6 5-5 10-7z"
     fill="#3D261B"
     id="path373" />
  <path
     transform="translate(287,174)"
     d="m0 0h7l10 8v2l4 2 16 13 10 9 1 5-2 5-2 1h-7l-8-7-14-12-11-9-5-4-2-3v-7z"
     fill="#FAD19E"
     id="path375" />
  <path
     transform="translate(540,368)"
     d="m0 0h6l3 3v5l-6 5-10 5-11 3-20 2-13-1-8-4-2-5 4-4h31l15-4z"
     fill="#3D261B"
     id="path377" />
  <path
     transform="translate(676,288)"
     d="m0 0 6 1 5 5 1 3v16l-3 8-7 8-4 2h-5l7-14-1-6-6-7 1-9z"
     fill="#3D261B"
     id="path379" />
  <path
     transform="translate(427,210)"
     d="m0 0h8l12 3 7 4 4 5-1 5-2 1-9-1-14-4h-17l-2-1v-5l5-5z"
     fill="#3D261B"
     id="path381" />
  <path
     transform="translate(400,331)"
     d="m0 0 12 3 8 1h19v1l-5 1h-18l-10-2h-4v19l3 17 3 8 27 11 1 2-10-3-19-8-3-5-4-18z"
     fill="#F8E3C5"
     id="path383" />
  <path
     transform="translate(347,441)"
     d="m0 0 3 1v3 1 2l2 1-3 1h-2l3 7v5l-2-1v-2h-2l-5-11 1-3 4-2z"
     fill="#D53565"
     id="path385" />
  <path
     transform="translate(400,331)"
     d="m0 0 12 3 8 1h19v1l-5 1h-18l-10-2h-4l-1 18h-1z"
     fill="#F9E8CE"
     id="path387" />
  <path
     transform="translate(380,387)"
     d="m0 0 10 3 16 6 5 3-3 1-13-5-12-5-1 2v-2l-2-1z"
     fill="#CF3462"
     id="path389" />
  <path
     transform="translate(312,784)"
     d="m0 0 3 1 3 3-1 3h-2v-2h-2zm-2 4 4 2v4l-6-1-1 3-2-1 1-6 1 2z"
     fill="#B93252"
     id="path391" />
  <path
     transform="translate(291,819)"
     d="m0 0 9 3-1 3 5 1h3l-2 3h2l1 3-5-2-12-10z"
     fill="#D83668"
     id="path393" />
  <path
     transform="translate(310,795)"
     d="m0 0 2 1 3 5-2 3-5 1v-4l1-4z"
     fill="#BD3255"
     id="path395" />
  <path
     transform="translate(318,784)"
     d="m0 0h3l1 3h-2l2 2 2 1v3l-6 1-3-2 3-1 1-3-3-1 3-1z"
     fill="#E93874"
     id="path397" />
  <path
     transform="translate(552,504)"
     d="m0 0 5 1 5 3-2 1-6-3-2 13h-1z"
     fill="#F9E9D0"
     id="path399" />
  <path
     transform="translate(355,434)"
     d="m0 0m-4 0 1 2 3-1 3 3-3 3h-4l-2-6z"
     fill="#C03257"
     id="path401" />
  <path
     transform="translate(537,602)"
     d="m0 0h1v9l10-1-3 2-10 2 1-9z"
     fill="#FAEBD3"
     id="path403" />
  <path
     transform="translate(372,414)"
     d="m0 0h5v3l-4 4h-2l-1-5h2z"
     fill="#CC3460"
     id="path405" />
  <path
     transform="translate(372,407)"
     d="m0 0 1 2h2v2h-2v2h-2l-1 2-1-2-4-1 2-3 4 1z"
     fill="#E93874"
     id="path407" />
</svg>
